<svg xmlns="http://www.w3.org/2000/svg" viewBox="0 0 60 60"><defs><style>.cls-1{fill:#f2f6fc;}.cls-2{fill:#afb4c8;}.cls-3{fill:#dce1eb;}.cls-4{fill:#7e8596;}.cls-5{fill:#ff636e;}.cls-6{fill:#ff475a;}.cls-7{fill:#65b1fc;}.cls-8{fill:#87c7ff;}.cls-9{fill:#4a98f7;}.cls-10{fill:#2b1505;}</style></defs><title>34-Online Service</title><g id="_34-Online_Service" data-name="34-Online Service"><rect class="cls-1" x="6" y="14" width="48" height="40" rx="1" ry="1"/><path class="cls-2" d="M45,1V5a1.959,1.959,0,0,1-2,2H19a1.959,1.959,0,0,1-2-2V1Z"/><path class="cls-3" d="M59,6V54a5,5,0,0,1-5,5H6a5,5,0,0,1-5-5V6A5,5,0,0,1,6,1H17V5a1.959,1.959,0,0,0,2,2H43a1.959,1.959,0,0,0,2-2V1h9A5,5,0,0,1,59,6ZM54,53V15a1,1,0,0,0-1-1H7a1,1,0,0,0-1,1V53a1,1,0,0,0,1,1H53A1,1,0,0,0,54,53Z"/><path class="cls-4" d="M11,6c.83,0,1,.67,1,1.5S11.83,9,11,9H7c-.83,0-1-.67-1-1.5S6.17,6,7,6Z"/><path class="cls-5" d="M38,5A16,16,0,1,1,25.18,30.54,20.715,20.715,0,0,0,21,35a12.222,12.222,0,0,1,2.4-7.48A15.979,15.979,0,0,1,38,5Z"/><circle class="cls-1" cx="38" cy="29" r="2"/><path class="cls-1" d="M40,13v8a2,2,0,0,1-4,0V13a2,2,0,0,1,4,0Z"/><path class="cls-6" d="M54,21A15.984,15.984,0,0,0,31.463,6.405,15.991,15.991,0,0,1,41.537,36.6,15.992,15.992,0,0,0,54,21Z"/><path class="cls-7" d="M45,42H43V35H59v8s-1,11-8,11H9C2,54,1,43,1,43V35H17v7H15l2,4H43Z"/><path class="cls-8" d="M55,35v8s-1,11-8,11h4c7,0,8-11,8-11V35Z"/><rect class="cls-9" x="1" y="35" width="16" height="7"/><rect class="cls-9" x="43" y="35" width="16" height="7"/><path class="cls-10" d="M54,0H6A6.006,6.006,0,0,0,0,6V54a6.006,6.006,0,0,0,6,6H54a6.006,6.006,0,0,0,6-6V6A6.006,6.006,0,0,0,54,0ZM2,36H16v5H11a1,1,0,0,0,0,2h3.382l1.723,3.447A1,1,0,0,0,17,47H43a1,1,0,0,0,.9-.553L45.618,43H49a1,1,0,0,0,0-2H44V36H58l0,6.909C58,43.01,57,53,51,53H9c-6,0-6.995-9.99-7-10ZM30,6H19a.915.915,0,0,1-1-1V2H44V5.114A16.843,16.843,0,0,0,30.012,6Zm8,0a15,15,0,0,1,7.5,27.994L45.492,34H43a1,1,0,0,0-1,1v.449a14.922,14.922,0,0,1-16.021-5.506,1,1,0,0,0-1.4-.2,17.467,17.467,0,0,0-2.13,1.91A10.818,10.818,0,0,1,24.2,28.117a1,1,0,0,0,.113-1.007A14.847,14.847,0,0,1,23,21,15.017,15.017,0,0,1,38,6ZM48.939,34A17.069,17.069,0,0,0,53,28.964V34ZM22.258,27.4A13.241,13.241,0,0,0,20,35a1,1,0,0,0,1.831.556,20.859,20.859,0,0,1,3.19-3.6A16.829,16.829,0,0,0,38,38a17.064,17.064,0,0,0,4-.474V42a1,1,0,0,0,1,1h.382l-1,2H17.618l-1-2H17a1,1,0,0,0,1-1V35a1,1,0,0,0-1-1H7V15H22.114a16.8,16.8,0,0,0,.144,12.4ZM58,6V34H55V21A17.012,17.012,0,0,0,46,6.007L46,6V2h8A4,4,0,0,1,58,6ZM6,2H16V5a2.916,2.916,0,0,0,3,3h8.068a17.114,17.114,0,0,0-4.061,5L23,13H7a2,2,0,0,0-2,2V34H2V6A4,4,0,0,1,6,2ZM58,54a4,4,0,0,1-4,4H6a4,4,0,0,1-4-4V50.1C3.321,52.689,5.482,55,9,55H51c3.518,0,5.679-2.31,7-4.905Z"/><path class="cls-10" d="M7,10h4c.6,0,2-.243,2-2.5S11.6,5,11,5H7c-.6,0-2,.243-2,2.5S6.4,10,7,10Zm.041-3,3.918,0A2.238,2.238,0,0,1,11,7.5a2.237,2.237,0,0,1-.041.5L7.041,8A2.238,2.238,0,0,1,7,7.5,2.237,2.237,0,0,1,7.041,7Z"/><path class="cls-10" d="M38,24a3,3,0,0,0,3-3V13a3,3,0,0,0-6,0v8A3,3,0,0,0,38,24ZM37,13a1,1,0,0,1,2,0v8a1,1,0,0,1-2,0Z"/><path class="cls-10" d="M38,32a3,3,0,1,0-3-3A3,3,0,0,0,38,32Zm0-4a1,1,0,1,1-1,1A1,1,0,0,1,38,28Z"/></g></svg>